<svg xmlns="http://www.w3.org/2000/svg" width="46" height="46"><g fill="none" fill-rule="evenodd"><path fill="#4285F4" d="M31.64 23.2c0-.63-.06-1.25-.16-1.84H23v3.48h4.84a4.14 4.14 0 0 1-1.8 2.72v2.26h2.92a8.78 8.78 0 0 0 2.68-6.62z"/><path fill="#34A853" d="M23 32a8.6 8.6 0 0 0 5.96-2.18l-2.91-2.26a5.4 5.4 0 0 1-8.09-2.85h-3v2.33A9 9 0 0 0 23 32z"/><path fill="#FBBC05" d="M17.96 24.71a5.41 5.41 0 0 1 0-3.42v-2.33h-3a9 9 0 0 0 0 8.08l3-2.33z"/><path fill="#EA4335" d="M23 17.58c1.32 0 2.5.45 3.44 1.35l2.58-2.59a9 9 0 0 0-14.06 2.61l3 2.34A5.36 5.36 0 0 1 23 17.58z"/><path d="M14 14h18v18H14V14z"/></g></svg>